<svg width="1361" height="1502" viewBox="0 0 1361 1502" fill="none" xmlns="http://www.w3.org/2000/svg">
<g opacity="0.2" filter="url(#filter0_f_175_190)">
<ellipse cx="688.5" cy="751" rx="670.5" ry="350" fill="#338AF3"/>
</g>
<path d="M209.035 987C210.53 987 211.662 987.63 212.431 988.891C213.213 990.138 213.605 991.953 213.605 994.336C213.605 996.719 213.213 998.541 212.431 999.802C211.662 1001.06 210.53 1001.69 209.035 1001.69C207.554 1001.69 206.422 1001.06 205.639 999.802C204.856 998.541 204.465 996.719 204.465 994.336C204.465 991.967 204.856 990.152 205.639 988.891C206.422 987.63 207.554 987 209.035 987ZM205.953 994.336C205.953 996.026 206.107 997.35 206.415 998.306L211.068 989.099C210.579 988.448 209.901 988.122 209.035 988.122C208.071 988.122 207.316 988.635 206.771 989.66C206.226 990.672 205.953 992.23 205.953 994.336ZM209.035 1000.55C210.013 1000.55 210.775 1000.04 211.32 999.033C211.865 998.008 212.137 996.442 212.137 994.336C212.137 992.549 211.963 991.163 211.613 990.18L206.96 999.469C207.463 1000.19 208.154 1000.55 209.035 1000.55Z" fill="url(#paint0_linear_175_190)" fill-opacity="0.6"/>
<path d="M210.293 1024.13H213.374V1025.24H205.387V1024.13H208.951V1012.46L205.555 1014.47L204.968 1013.54L209.161 1010.96H210.293V1024.13Z" fill="url(#paint1_linear_175_190)" fill-opacity="0.6"/>
<path d="M209.035 1034.5C210.53 1034.5 211.662 1035.13 212.431 1036.39C213.213 1037.64 213.605 1039.46 213.605 1041.84C213.605 1044.22 213.213 1046.04 212.431 1047.3C211.662 1048.56 210.53 1049.2 209.035 1049.2C207.554 1049.2 206.422 1048.56 205.639 1047.3C204.856 1046.04 204.465 1044.22 204.465 1041.84C204.465 1039.47 204.856 1037.65 205.639 1036.39C206.422 1035.13 207.554 1034.5 209.035 1034.5ZM205.953 1041.84C205.953 1043.53 206.107 1044.85 206.415 1045.81L211.068 1036.6C210.579 1035.95 209.901 1035.62 209.035 1035.62C208.071 1035.62 207.316 1036.14 206.771 1037.16C206.226 1038.17 205.953 1039.73 205.953 1041.84ZM209.035 1048.05C210.013 1048.05 210.775 1047.55 211.32 1046.53C211.865 1045.51 212.137 1043.94 212.137 1041.84C212.137 1040.05 211.963 1038.67 211.613 1037.68L206.96 1046.97C207.463 1047.69 208.154 1048.05 209.035 1048.05Z" fill="url(#paint2_linear_175_190)" fill-opacity="0.6"/>
<path d="M210.293 1071.64H213.374V1072.74H205.387V1071.64H208.951V1059.96L205.555 1061.97L204.968 1061.04L209.161 1058.46H210.293V1071.64Z" fill="url(#paint3_linear_175_190)" fill-opacity="0.6"/>
<path d="M210.293 1095.39H213.374V1096.49H205.387V1095.39H208.951V1083.71L205.555 1085.72L204.968 1084.79L209.161 1082.21H210.293V1095.39Z" fill="url(#paint4_linear_175_190)" fill-opacity="0.6"/>
<path d="M209.035 1105.76C210.53 1105.76 211.662 1106.39 212.431 1107.65C213.213 1108.89 213.605 1110.71 213.605 1113.09C213.605 1115.47 213.213 1117.3 212.431 1118.56C211.662 1119.82 210.53 1120.45 209.035 1120.45C207.554 1120.45 206.422 1119.82 205.639 1118.56C204.856 1117.3 204.465 1115.47 204.465 1113.09C204.465 1110.72 204.856 1108.91 205.639 1107.65C206.422 1106.39 207.554 1105.76 209.035 1105.76ZM205.953 1113.09C205.953 1114.78 206.107 1116.1 206.415 1117.06L211.068 1107.85C210.579 1107.2 209.901 1106.88 209.035 1106.88C208.071 1106.88 207.316 1107.39 206.771 1108.42C206.226 1109.43 205.953 1110.99 205.953 1113.09ZM209.035 1119.31C210.013 1119.31 210.775 1118.8 211.32 1117.79C211.865 1116.76 212.137 1115.2 212.137 1113.09C212.137 1111.3 211.963 1109.92 211.613 1108.93L206.96 1118.22C207.463 1118.95 208.154 1119.31 209.035 1119.31Z" fill="url(#paint5_linear_175_190)" fill-opacity="0.6"/>
<path d="M210.293 1142.89H213.374V1143.99H205.387V1142.89H208.951V1131.21L205.555 1133.23L204.968 1132.29L209.161 1129.71H210.293V1142.89Z" fill="url(#paint6_linear_175_190)" fill-opacity="0.6"/>
<path d="M209.035 1153.26C210.53 1153.26 211.662 1153.89 212.431 1155.15C213.213 1156.4 213.605 1158.21 213.605 1160.59C213.605 1162.98 213.213 1164.8 212.431 1166.06C211.662 1167.32 210.53 1167.95 209.035 1167.95C207.554 1167.95 206.422 1167.32 205.639 1166.06C204.856 1164.8 204.465 1162.98 204.465 1160.59C204.465 1158.22 204.856 1156.41 205.639 1155.15C206.422 1153.89 207.554 1153.26 209.035 1153.26ZM205.953 1160.59C205.953 1162.28 206.107 1163.61 206.415 1164.56L211.068 1155.36C210.579 1154.71 209.901 1154.38 209.035 1154.38C208.071 1154.38 207.316 1154.89 206.771 1155.92C206.226 1156.93 205.953 1158.49 205.953 1160.59ZM209.035 1166.81C210.013 1166.81 210.775 1166.3 211.32 1165.29C211.865 1164.27 212.137 1162.7 212.137 1160.59C212.137 1158.81 211.963 1157.42 211.613 1156.44L206.96 1165.73C207.463 1166.45 208.154 1166.81 209.035 1166.81Z" fill="url(#paint7_linear_175_190)" fill-opacity="0.6"/>
<path d="M209.035 1177.01C210.53 1177.01 211.662 1177.64 212.431 1178.9C213.213 1180.15 213.605 1181.96 213.605 1184.34C213.605 1186.73 213.213 1188.55 212.431 1189.81C211.662 1191.07 210.53 1191.7 209.035 1191.7C207.554 1191.7 206.422 1191.07 205.639 1189.81C204.856 1188.55 204.465 1186.73 204.465 1184.34C204.465 1181.98 204.856 1180.16 205.639 1178.9C206.422 1177.64 207.554 1177.01 209.035 1177.01ZM205.953 1184.34C205.953 1186.03 206.107 1187.36 206.415 1188.31L211.068 1179.11C210.579 1178.46 209.901 1178.13 209.035 1178.13C208.071 1178.13 207.316 1178.64 206.771 1179.67C206.226 1180.68 205.953 1182.24 205.953 1184.34ZM209.035 1190.56C210.013 1190.56 210.775 1190.05 211.32 1189.04C211.865 1188.02 212.137 1186.45 212.137 1184.34C212.137 1182.56 211.963 1181.17 211.613 1180.19L206.96 1189.48C207.463 1190.2 208.154 1190.56 209.035 1190.56Z" fill="url(#paint8_linear_175_190)" fill-opacity="0.6"/>
<path d="M210.293 1214.14H213.374V1215.24H205.387V1214.14H208.951V1202.46L205.555 1204.48L204.968 1203.54L209.161 1200.97H210.293V1214.14Z" fill="url(#paint9_linear_175_190)" fill-opacity="0.6"/>
<path d="M209.035 1224.51C210.53 1224.51 211.662 1225.14 212.431 1226.4C213.213 1227.65 213.605 1229.46 213.605 1231.85C213.605 1234.23 213.213 1236.05 212.431 1237.31C211.662 1238.57 210.53 1239.2 209.035 1239.2C207.554 1239.2 206.422 1238.57 205.639 1237.31C204.856 1236.05 204.465 1234.23 204.465 1231.85C204.465 1229.48 204.856 1227.66 205.639 1226.4C206.422 1225.14 207.554 1224.51 209.035 1224.51ZM205.953 1231.85C205.953 1233.54 206.107 1234.86 206.415 1235.82L211.068 1226.61C210.579 1225.96 209.901 1225.63 209.035 1225.63C208.071 1225.63 207.316 1226.15 206.771 1227.17C206.226 1228.18 205.953 1229.74 205.953 1231.85ZM209.035 1238.06C210.013 1238.06 210.775 1237.55 211.32 1236.54C211.865 1235.52 212.137 1233.95 212.137 1231.85C212.137 1230.06 211.963 1228.67 211.613 1227.69L206.96 1236.98C207.463 1237.7 208.154 1238.06 209.035 1238.06Z" fill="url(#paint10_linear_175_190)" fill-opacity="0.6"/>
<path d="M210.293 1261.65H213.374V1262.75H205.387V1261.65H208.951V1249.97L205.555 1251.98L204.968 1251.05L209.161 1248.47H210.293V1261.65Z" fill="url(#paint11_linear_175_190)" fill-opacity="0.6"/>
<path d="M210.293 1285.4H213.374V1286.5H205.387V1285.4H208.951V1273.72L205.555 1275.73L204.968 1274.8L209.161 1272.22H210.293V1285.4Z" fill="url(#paint12_linear_175_190)" fill-opacity="0.6"/>
<path d="M247.965 1034.5C249.46 1034.5 250.592 1035.13 251.361 1036.39C252.144 1037.64 252.535 1039.46 252.535 1041.84C252.535 1044.22 252.144 1046.04 251.361 1047.3C250.592 1048.56 249.46 1049.2 247.965 1049.2C246.484 1049.2 245.352 1048.56 244.569 1047.3C243.787 1046.04 243.395 1044.22 243.395 1041.84C243.395 1039.47 243.787 1037.65 244.569 1036.39C245.352 1035.13 246.484 1034.5 247.965 1034.5ZM244.884 1041.84C244.884 1043.53 245.037 1044.85 245.345 1045.81L249.998 1036.6C249.509 1035.95 248.832 1035.62 247.965 1035.62C247.001 1035.62 246.246 1036.14 245.701 1037.16C245.156 1038.17 244.884 1039.73 244.884 1041.84ZM247.965 1048.05C248.943 1048.05 249.705 1047.55 250.25 1046.53C250.795 1045.51 251.068 1043.94 251.068 1041.84C251.068 1040.05 250.893 1038.67 250.543 1037.68L245.89 1046.97C246.393 1047.69 247.085 1048.05 247.965 1048.05Z" fill="url(#paint13_linear_175_190)" fill-opacity="0.6"/>
<path d="M249.223 1071.64H252.304V1072.74H244.318V1071.64H247.881V1059.96L244.485 1061.97L243.898 1061.04L248.091 1058.46H249.223V1071.64Z" fill="url(#paint14_linear_175_190)" fill-opacity="0.6"/>
<path d="M247.965 1082C249.46 1082 250.592 1082.63 251.361 1083.9C252.144 1085.14 252.535 1086.96 252.535 1089.34C252.535 1091.72 252.144 1093.55 251.361 1094.81C250.592 1096.07 249.46 1096.7 247.965 1096.7C246.484 1096.7 245.352 1096.07 244.569 1094.81C243.787 1093.55 243.395 1091.72 243.395 1089.34C243.395 1086.97 243.787 1085.16 244.569 1083.9C245.352 1082.63 246.484 1082 247.965 1082ZM244.884 1089.34C244.884 1091.03 245.037 1092.35 245.345 1093.31L249.998 1084.1C249.509 1083.45 248.832 1083.13 247.965 1083.13C247.001 1083.13 246.246 1083.64 245.701 1084.66C245.156 1085.68 244.884 1087.23 244.884 1089.34ZM247.965 1095.55C248.943 1095.55 249.705 1095.05 250.25 1094.04C250.795 1093.01 251.068 1091.45 251.068 1089.34C251.068 1087.55 250.893 1086.17 250.543 1085.18L245.89 1094.47C246.393 1095.19 247.085 1095.55 247.965 1095.55Z" fill="url(#paint15_linear_175_190)" fill-opacity="0.6"/>
<path d="M247.965 1105.76C249.46 1105.76 250.592 1106.39 251.361 1107.65C252.144 1108.89 252.535 1110.71 252.535 1113.09C252.535 1115.47 252.144 1117.3 251.361 1118.56C250.592 1119.82 249.46 1120.45 247.965 1120.45C246.484 1120.45 245.352 1119.82 244.569 1118.56C243.787 1117.3 243.395 1115.47 243.395 1113.09C243.395 1110.72 243.787 1108.91 244.569 1107.65C245.352 1106.39 246.484 1105.76 247.965 1105.76ZM244.884 1113.09C244.884 1114.78 245.037 1116.1 245.345 1117.06L249.998 1107.85C249.509 1107.2 248.832 1106.88 247.965 1106.88C247.001 1106.88 246.246 1107.39 245.701 1108.42C245.156 1109.43 244.884 1110.99 244.884 1113.09ZM247.965 1119.31C248.943 1119.31 249.705 1118.8 250.25 1117.79C250.795 1116.76 251.068 1115.2 251.068 1113.09C251.068 1111.3 250.893 1109.92 250.543 1108.93L245.89 1118.22C246.393 1118.95 247.085 1119.31 247.965 1119.31Z" fill="url(#paint16_linear_175_190)" fill-opacity="0.6"/>
<path d="M249.223 1142.89H252.304V1143.99H244.318V1142.89H247.881V1131.21L244.485 1133.23L243.898 1132.29L248.091 1129.71H249.223V1142.89Z" fill="url(#paint17_linear_175_190)" fill-opacity="0.6"/>
<path d="M247.965 1153.26C249.46 1153.26 250.592 1153.89 251.361 1155.15C252.144 1156.4 252.535 1158.21 252.535 1160.59C252.535 1162.98 252.144 1164.8 251.361 1166.06C250.592 1167.32 249.46 1167.95 247.965 1167.95C246.484 1167.95 245.352 1167.32 244.569 1166.06C243.787 1164.8 243.395 1162.98 243.395 1160.59C243.395 1158.22 243.787 1156.41 244.569 1155.15C245.352 1153.89 246.484 1153.26 247.965 1153.26ZM244.884 1160.59C244.884 1162.28 245.037 1163.61 245.345 1164.56L249.998 1155.36C249.509 1154.71 248.832 1154.38 247.965 1154.38C247.001 1154.38 246.246 1154.89 245.701 1155.92C245.156 1156.93 244.884 1158.49 244.884 1160.59ZM247.965 1166.81C248.943 1166.81 249.705 1166.3 250.25 1165.29C250.795 1164.27 251.068 1162.7 251.068 1160.59C251.068 1158.81 250.893 1157.42 250.543 1156.44L245.89 1165.73C246.393 1166.45 247.085 1166.81 247.965 1166.81Z" fill="url(#paint18_linear_175_190)" fill-opacity="0.6"/>
<path d="M249.223 1190.39H252.304V1191.49H244.318V1190.39H247.881V1178.71L244.485 1180.73L243.898 1179.79L248.091 1177.22H249.223V1190.39Z" fill="url(#paint19_linear_175_190)" fill-opacity="0.6"/>
<path d="M247.965 1200.76C249.46 1200.76 250.592 1201.39 251.361 1202.65C252.144 1203.9 252.535 1205.71 252.535 1208.1C252.535 1210.48 252.144 1212.3 251.361 1213.56C250.592 1214.82 249.46 1215.45 247.965 1215.45C246.484 1215.45 245.352 1214.82 244.569 1213.56C243.787 1212.3 243.395 1210.48 243.395 1208.1C243.395 1205.73 243.787 1203.91 244.569 1202.65C245.352 1201.39 246.484 1200.76 247.965 1200.76ZM244.884 1208.1C244.884 1209.79 245.037 1211.11 245.345 1212.07L249.998 1202.86C249.509 1202.21 248.832 1201.88 247.965 1201.88C247.001 1201.88 246.246 1202.39 245.701 1203.42C245.156 1204.43 244.884 1205.99 244.884 1208.1ZM247.965 1214.31C248.943 1214.31 249.705 1213.8 250.25 1212.79C250.795 1211.77 251.068 1210.2 251.068 1208.1C251.068 1206.31 250.893 1204.92 250.543 1203.94L245.89 1213.23C246.393 1213.95 247.085 1214.31 247.965 1214.31Z" fill="url(#paint20_linear_175_190)" fill-opacity="0.6"/>
<path d="M247.965 1224.51C249.46 1224.51 250.592 1225.14 251.361 1226.4C252.144 1227.65 252.535 1229.46 252.535 1231.85C252.535 1234.23 252.144 1236.05 251.361 1237.31C250.592 1238.57 249.46 1239.2 247.965 1239.2C246.484 1239.2 245.352 1238.57 244.569 1237.31C243.787 1236.05 243.395 1234.23 243.395 1231.85C243.395 1229.48 243.787 1227.66 244.569 1226.4C245.352 1225.14 246.484 1224.51 247.965 1224.51ZM244.884 1231.85C244.884 1233.54 245.037 1234.86 245.345 1235.82L249.998 1226.61C249.509 1225.96 248.832 1225.63 247.965 1225.63C247.001 1225.63 246.246 1226.15 245.701 1227.17C245.156 1228.18 244.884 1229.74 244.884 1231.85ZM247.965 1238.06C248.943 1238.06 249.705 1237.55 250.25 1236.54C250.795 1235.52 251.068 1233.95 251.068 1231.85C251.068 1230.06 250.893 1228.67 250.543 1227.69L245.89 1236.98C246.393 1237.7 247.085 1238.06 247.965 1238.06Z" fill="url(#paint21_linear_175_190)" fill-opacity="0.6"/>
<path d="M249.223 1261.65H252.304V1262.75H244.318V1261.65H247.881V1249.97L244.485 1251.98L243.898 1251.05L248.091 1248.47H249.223V1261.65Z" fill="url(#paint22_linear_175_190)" fill-opacity="0.6"/>
<path d="M247.965 1272.01C249.46 1272.01 250.592 1272.64 251.361 1273.9C252.144 1275.15 252.535 1276.97 252.535 1279.35C252.535 1281.73 252.144 1283.55 251.361 1284.81C250.592 1286.08 249.46 1286.71 247.965 1286.71C246.484 1286.71 245.352 1286.08 244.569 1284.81C243.787 1283.55 243.395 1281.73 243.395 1279.35C243.395 1276.98 243.787 1275.16 244.569 1273.9C245.352 1272.64 246.484 1272.01 247.965 1272.01ZM244.884 1279.35C244.884 1281.04 245.037 1282.36 245.345 1283.32L249.998 1274.11C249.509 1273.46 248.832 1273.13 247.965 1273.13C247.001 1273.13 246.246 1273.65 245.701 1274.67C245.156 1275.68 244.884 1277.24 244.884 1279.35ZM247.965 1285.56C248.943 1285.56 249.705 1285.06 250.25 1284.05C250.795 1283.02 251.068 1281.45 251.068 1279.35C251.068 1277.56 250.893 1276.18 250.543 1275.19L245.89 1284.48C246.393 1285.2 247.085 1285.56 247.965 1285.56Z" fill="url(#paint23_linear_175_190)" fill-opacity="0.6"/>
<path d="M249.223 1309.15H252.304V1310.25H244.318V1309.15H247.881V1297.47L244.485 1299.48L243.898 1298.55L248.091 1295.97H249.223V1309.15Z" fill="url(#paint24_linear_175_190)" fill-opacity="0.6"/>
<path d="M249.223 1332.9H252.304V1334H244.318V1332.9H247.881V1321.22L244.485 1323.23L243.898 1322.3L248.091 1319.72H249.223V1332.9Z" fill="url(#paint25_linear_175_190)" fill-opacity="0.6"/>
<path d="M189.57 1058.25C191.065 1058.25 192.197 1058.88 192.966 1060.14C193.748 1061.39 194.14 1063.21 194.14 1065.59C194.14 1067.97 193.748 1069.79 192.966 1071.05C192.197 1072.32 191.065 1072.95 189.57 1072.95C188.088 1072.95 186.956 1072.32 186.174 1071.05C185.391 1069.79 185 1067.97 185 1065.59C185 1063.22 185.391 1061.41 186.174 1060.14C186.956 1058.88 188.088 1058.25 189.57 1058.25ZM186.488 1065.59C186.488 1067.28 186.642 1068.6 186.95 1069.56L191.603 1060.35C191.114 1059.7 190.436 1059.38 189.57 1059.38C188.606 1059.38 187.851 1059.89 187.306 1060.91C186.761 1061.92 186.488 1063.48 186.488 1065.59ZM189.57 1071.8C190.548 1071.8 191.31 1071.3 191.855 1070.29C192.4 1069.26 192.672 1067.7 192.672 1065.59C192.672 1063.8 192.498 1062.42 192.148 1061.43L187.495 1070.72C187.998 1071.44 188.689 1071.8 189.57 1071.8Z" fill="url(#paint26_linear_175_190)" fill-opacity="0.6"/>
<path d="M189.57 1082C191.065 1082 192.197 1082.63 192.966 1083.9C193.748 1085.14 194.14 1086.96 194.14 1089.34C194.14 1091.72 193.748 1093.55 192.966 1094.81C192.197 1096.07 191.065 1096.7 189.57 1096.7C188.088 1096.7 186.956 1096.07 186.174 1094.81C185.391 1093.55 185 1091.72 185 1089.34C185 1086.97 185.391 1085.16 186.174 1083.9C186.956 1082.63 188.088 1082 189.57 1082ZM186.488 1089.34C186.488 1091.03 186.642 1092.35 186.95 1093.31L191.603 1084.1C191.114 1083.45 190.436 1083.13 189.57 1083.13C188.606 1083.13 187.851 1083.64 187.306 1084.66C186.761 1085.68 186.488 1087.23 186.488 1089.34ZM189.57 1095.55C190.548 1095.55 191.31 1095.05 191.855 1094.04C192.4 1093.01 192.672 1091.45 192.672 1089.34C192.672 1087.55 192.498 1086.17 192.148 1085.18L187.495 1094.47C187.998 1095.19 188.689 1095.55 189.57 1095.55Z" fill="url(#paint27_linear_175_190)" fill-opacity="0.6"/>
<path d="M190.828 1119.14H193.909V1120.24H185.922V1119.14H189.486V1107.46L186.09 1109.48L185.503 1108.54L189.696 1105.96H190.828V1119.14Z" fill="url(#paint28_linear_175_190)" fill-opacity="0.6"/>
<path d="M189.57 1129.51C191.065 1129.51 192.197 1130.14 192.966 1131.4C193.748 1132.64 194.14 1134.46 194.14 1136.84C194.14 1139.23 193.748 1141.05 192.966 1142.31C192.197 1143.57 191.065 1144.2 189.57 1144.2C188.088 1144.2 186.956 1143.57 186.174 1142.31C185.391 1141.05 185 1139.23 185 1136.84C185 1134.47 185.391 1132.66 186.174 1131.4C186.956 1130.14 188.088 1129.51 189.57 1129.51ZM186.488 1136.84C186.488 1138.53 186.642 1139.86 186.95 1140.81L191.603 1131.61C191.114 1130.95 190.436 1130.63 189.57 1130.63C188.606 1130.63 187.851 1131.14 187.306 1132.17C186.761 1133.18 186.488 1134.74 186.488 1136.84ZM189.57 1143.06C190.548 1143.06 191.31 1142.55 191.855 1141.54C192.4 1140.51 192.672 1138.95 192.672 1136.84C192.672 1135.06 192.498 1133.67 192.148 1132.69L187.495 1141.98C187.998 1142.7 188.689 1143.06 189.57 1143.06Z" fill="url(#paint29_linear_175_190)" fill-opacity="0.6"/>
<path d="M190.828 1166.64H193.909V1167.74H185.922V1166.64H189.486V1154.96L186.09 1156.98L185.503 1156.04L189.696 1153.47H190.828V1166.64Z" fill="url(#paint30_linear_175_190)" fill-opacity="0.6"/>
<path d="M190.828 1190.39H193.909V1191.49H185.922V1190.39H189.486V1178.71L186.09 1180.73L185.503 1179.79L189.696 1177.22H190.828V1190.39Z" fill="url(#paint31_linear_175_190)" fill-opacity="0.6"/>
<path d="M229.758 1024.13H232.839V1025.24H224.853V1024.13H228.416V1012.46L225.02 1014.47L224.433 1013.54L228.626 1010.96H229.758V1024.13Z" fill="url(#paint32_linear_175_190)" fill-opacity="0.6"/>
<path d="M228.5 1034.5C229.995 1034.5 231.127 1035.13 231.896 1036.39C232.679 1037.64 233.07 1039.46 233.07 1041.84C233.07 1044.22 232.679 1046.04 231.896 1047.3C231.127 1048.56 229.995 1049.2 228.5 1049.2C227.019 1049.2 225.887 1048.56 225.104 1047.3C224.321 1046.04 223.93 1044.22 223.93 1041.84C223.93 1039.47 224.321 1037.65 225.104 1036.39C225.887 1035.13 227.019 1034.5 228.5 1034.5ZM225.419 1041.84C225.419 1043.53 225.572 1044.85 225.88 1045.81L230.533 1036.6C230.044 1035.95 229.366 1035.62 228.5 1035.62C227.536 1035.62 226.781 1036.14 226.236 1037.16C225.691 1038.17 225.419 1039.73 225.419 1041.84ZM228.5 1048.05C229.478 1048.05 230.24 1047.55 230.785 1046.53C231.33 1045.51 231.602 1043.94 231.602 1041.84C231.602 1040.05 231.428 1038.67 231.078 1037.68L226.425 1046.97C226.928 1047.69 227.62 1048.05 228.5 1048.05Z" fill="url(#paint33_linear_175_190)" fill-opacity="0.6"/>
<path d="M229.758 1071.64H232.839V1072.74H224.853V1071.64H228.416V1059.96L225.02 1061.97L224.433 1061.04L228.626 1058.46H229.758V1071.64Z" fill="url(#paint34_linear_175_190)" fill-opacity="0.6"/>
<path d="M229.758 1095.39H232.839V1096.49H224.853V1095.39H228.416V1083.71L225.02 1085.72L224.433 1084.79L228.626 1082.21H229.758V1095.39Z" fill="url(#paint35_linear_175_190)" fill-opacity="0.6"/>
<path d="M228.5 1105.76C229.995 1105.76 231.127 1106.39 231.896 1107.65C232.679 1108.89 233.07 1110.71 233.07 1113.09C233.07 1115.47 232.679 1117.3 231.896 1118.56C231.127 1119.82 229.995 1120.45 228.5 1120.45C227.019 1120.45 225.887 1119.82 225.104 1118.56C224.321 1117.3 223.93 1115.47 223.93 1113.09C223.93 1110.72 224.321 1108.91 225.104 1107.65C225.887 1106.39 227.019 1105.76 228.5 1105.76ZM225.419 1113.09C225.419 1114.78 225.572 1116.1 225.88 1117.06L230.533 1107.85C230.044 1107.2 229.366 1106.88 228.5 1106.88C227.536 1106.88 226.781 1107.39 226.236 1108.42C225.691 1109.43 225.419 1110.99 225.419 1113.09ZM228.5 1119.31C229.478 1119.31 230.24 1118.8 230.785 1117.79C231.33 1116.76 231.602 1115.2 231.602 1113.09C231.602 1111.3 231.428 1109.92 231.078 1108.93L226.425 1118.22C226.928 1118.95 227.62 1119.31 228.5 1119.31Z" fill="url(#paint36_linear_175_190)" fill-opacity="0.6"/>
<path d="M229.758 1142.89H232.839V1143.99H224.853V1142.89H228.416V1131.21L225.02 1133.23L224.433 1132.29L228.626 1129.71H229.758V1142.89Z" fill="url(#paint37_linear_175_190)" fill-opacity="0.6"/>
<path d="M229.758 1166.64H232.839V1167.74H224.853V1166.64H228.416V1154.96L225.02 1156.98L224.433 1156.04L228.626 1153.47H229.758V1166.64Z" fill="url(#paint38_linear_175_190)" fill-opacity="0.6"/>
<path d="M228.5 1177.01C229.995 1177.01 231.127 1177.64 231.896 1178.9C232.679 1180.15 233.07 1181.96 233.07 1184.34C233.07 1186.73 232.679 1188.55 231.896 1189.81C231.127 1191.07 229.995 1191.7 228.5 1191.7C227.019 1191.7 225.887 1191.07 225.104 1189.81C224.321 1188.55 223.93 1186.73 223.93 1184.34C223.93 1181.98 224.321 1180.16 225.104 1178.9C225.887 1177.64 227.019 1177.01 228.5 1177.01ZM225.419 1184.34C225.419 1186.03 225.572 1187.36 225.88 1188.31L230.533 1179.11C230.044 1178.46 229.366 1178.13 228.5 1178.13C227.536 1178.13 226.781 1178.64 226.236 1179.67C225.691 1180.68 225.419 1182.24 225.419 1184.34ZM228.5 1190.56C229.478 1190.56 230.24 1190.05 230.785 1189.04C231.33 1188.02 231.602 1186.45 231.602 1184.34C231.602 1182.56 231.428 1181.17 231.078 1180.19L226.425 1189.48C226.928 1190.2 227.62 1190.56 228.5 1190.56Z" fill="url(#paint39_linear_175_190)" fill-opacity="0.6"/>
<path d="M229.758 1214.14H232.839V1215.24H224.853V1214.14H228.416V1202.46L225.02 1204.48L224.433 1203.54L228.626 1200.97H229.758V1214.14Z" fill="url(#paint40_linear_175_190)" fill-opacity="0.6"/>
<path d="M228.5 1224.51C229.995 1224.51 231.127 1225.14 231.896 1226.4C232.679 1227.65 233.07 1229.46 233.07 1231.85C233.07 1234.23 232.679 1236.05 231.896 1237.31C231.127 1238.57 229.995 1239.2 228.5 1239.2C227.019 1239.2 225.887 1238.57 225.104 1237.31C224.321 1236.05 223.93 1234.23 223.93 1231.85C223.93 1229.48 224.321 1227.66 225.104 1226.4C225.887 1225.14 227.019 1224.51 228.5 1224.51ZM225.419 1231.85C225.419 1233.54 225.572 1234.86 225.88 1235.82L230.533 1226.61C230.044 1225.96 229.366 1225.63 228.5 1225.63C227.536 1225.63 226.781 1226.15 226.236 1227.17C225.691 1228.18 225.419 1229.74 225.419 1231.85ZM228.5 1238.06C229.478 1238.06 230.24 1237.55 230.785 1236.54C231.33 1235.52 231.602 1233.95 231.602 1231.85C231.602 1230.06 231.428 1228.67 231.078 1227.69L226.425 1236.98C226.928 1237.7 227.62 1238.06 228.5 1238.06Z" fill="url(#paint41_linear_175_190)" fill-opacity="0.6"/>
<path d="M267.43 1010.75C268.926 1010.75 270.057 1011.38 270.826 1012.64C271.609 1013.89 272 1015.7 272 1018.09C272 1020.47 271.609 1022.29 270.826 1023.55C270.057 1024.81 268.926 1025.44 267.43 1025.44C265.949 1025.44 264.817 1024.81 264.034 1023.55C263.252 1022.29 262.86 1020.47 262.86 1018.09C262.86 1015.72 263.252 1013.9 264.034 1012.64C264.817 1011.38 265.949 1010.75 267.43 1010.75ZM264.349 1018.09C264.349 1019.78 264.502 1021.1 264.81 1022.06L269.464 1012.85C268.974 1012.2 268.297 1011.87 267.43 1011.87C266.466 1011.87 265.711 1012.39 265.166 1013.41C264.621 1014.42 264.349 1015.98 264.349 1018.09ZM267.43 1024.3C268.408 1024.3 269.17 1023.8 269.715 1022.78C270.26 1021.76 270.533 1020.19 270.533 1018.09C270.533 1016.3 270.358 1014.91 270.009 1013.93L265.355 1023.22C265.858 1023.94 266.55 1024.3 267.43 1024.3Z" fill="url(#paint42_linear_175_190)" fill-opacity="0.6"/>
<path d="M268.688 1047.89H271.769V1048.99H263.783V1047.89H267.346V1036.21L263.95 1038.22L263.363 1037.29L267.556 1034.71H268.688V1047.89Z" fill="url(#paint43_linear_175_190)" fill-opacity="0.6"/>
<path d="M268.688 1071.64H271.769V1072.74H263.783V1071.64H267.346V1059.96L263.95 1061.97L263.363 1061.04L267.556 1058.46H268.688V1071.64Z" fill="url(#paint44_linear_175_190)" fill-opacity="0.6"/>
<path d="M267.43 1082C268.926 1082 270.057 1082.63 270.826 1083.9C271.609 1085.14 272 1086.96 272 1089.34C272 1091.72 271.609 1093.55 270.826 1094.81C270.057 1096.07 268.926 1096.7 267.43 1096.7C265.949 1096.7 264.817 1096.07 264.034 1094.81C263.252 1093.55 262.86 1091.72 262.86 1089.34C262.86 1086.97 263.252 1085.16 264.034 1083.9C264.817 1082.63 265.949 1082 267.43 1082ZM264.349 1089.34C264.349 1091.03 264.502 1092.35 264.81 1093.31L269.464 1084.1C268.974 1083.45 268.297 1083.13 267.43 1083.13C266.466 1083.13 265.711 1083.64 265.166 1084.66C264.621 1085.68 264.349 1087.23 264.349 1089.34ZM267.43 1095.55C268.408 1095.55 269.17 1095.05 269.715 1094.04C270.26 1093.01 270.533 1091.45 270.533 1089.34C270.533 1087.55 270.358 1086.17 270.009 1085.18L265.355 1094.47C265.858 1095.19 266.55 1095.55 267.43 1095.55Z" fill="url(#paint45_linear_175_190)" fill-opacity="0.6"/>
<path d="M267.43 1105.76C268.926 1105.76 270.057 1106.39 270.826 1107.65C271.609 1108.89 272 1110.71 272 1113.09C272 1115.47 271.609 1117.3 270.826 1118.56C270.057 1119.82 268.926 1120.45 267.43 1120.45C265.949 1120.45 264.817 1119.82 264.034 1118.56C263.252 1117.3 262.86 1115.47 262.86 1113.09C262.86 1110.72 263.252 1108.91 264.034 1107.65C264.817 1106.39 265.949 1105.76 267.43 1105.76ZM264.349 1113.09C264.349 1114.78 264.502 1116.1 264.81 1117.06L269.464 1107.85C268.974 1107.2 268.297 1106.88 267.43 1106.88C266.466 1106.88 265.711 1107.39 265.166 1108.42C264.621 1109.43 264.349 1110.99 264.349 1113.09ZM267.43 1119.31C268.408 1119.31 269.17 1118.8 269.715 1117.79C270.26 1116.76 270.533 1115.2 270.533 1113.09C270.533 1111.3 270.358 1109.92 270.009 1108.93L265.355 1118.22C265.858 1118.95 266.55 1119.31 267.43 1119.31Z" fill="url(#paint46_linear_175_190)" fill-opacity="0.6"/>
<g opacity="0.6">
<path d="M1095.93 687C1097.36 687 1098.44 687.605 1099.17 688.815C1099.92 690.011 1100.29 691.753 1100.29 694.04C1100.29 696.327 1099.92 698.075 1099.17 699.285C1098.44 700.495 1097.36 701.1 1095.93 701.1C1094.52 701.1 1093.44 700.495 1092.69 699.285C1091.94 698.075 1091.57 696.327 1091.57 694.04C1091.57 691.767 1091.94 690.025 1092.69 688.815C1093.44 687.605 1094.52 687 1095.93 687ZM1092.99 694.04C1092.99 695.662 1093.14 696.932 1093.43 697.849L1097.87 689.014C1097.4 688.389 1096.76 688.077 1095.93 688.077C1095.01 688.077 1094.29 688.569 1093.77 689.553C1093.25 690.523 1092.99 692.019 1092.99 694.04ZM1095.93 700.003C1096.86 700.003 1097.59 699.518 1098.11 698.547C1098.63 697.564 1098.89 696.061 1098.89 694.04C1098.89 692.325 1098.72 690.995 1098.39 690.051L1093.95 698.966C1094.43 699.658 1095.09 700.003 1095.93 700.003Z" fill="url(#paint47_linear_175_190)"/>
<path d="M1097.13 722.637H1100.07V723.694H1092.45V722.637H1095.85V711.428L1092.61 713.363L1092.05 712.465L1096.05 709.992H1097.13V722.637Z" fill="url(#paint48_linear_175_190)"/>
<path d="M1095.93 732.586C1097.36 732.586 1098.44 733.191 1099.17 734.4C1099.92 735.597 1100.29 737.339 1100.29 739.626C1100.29 741.913 1099.92 743.661 1099.17 744.871C1098.44 746.081 1097.36 746.686 1095.93 746.686C1094.52 746.686 1093.44 746.081 1092.69 744.871C1091.94 743.661 1091.57 741.913 1091.57 739.626C1091.57 737.352 1091.94 735.61 1092.69 734.4C1093.44 733.191 1094.52 732.586 1095.93 732.586ZM1092.99 739.626C1092.99 741.248 1093.14 742.518 1093.43 743.435L1097.87 734.6C1097.4 733.975 1096.76 733.663 1095.93 733.663C1095.01 733.663 1094.29 734.155 1093.77 735.138C1093.25 736.109 1092.99 737.605 1092.99 739.626ZM1095.93 745.589C1096.86 745.589 1097.59 745.104 1098.11 744.133C1098.63 743.149 1098.89 741.647 1098.89 739.626C1098.89 737.911 1098.72 736.581 1098.39 735.637L1093.95 744.552C1094.43 745.243 1095.09 745.589 1095.93 745.589Z" fill="url(#paint49_linear_175_190)"/>
<path d="M1097.13 768.222H1100.07V769.279H1092.45V768.222H1095.85V757.014L1092.61 758.948L1092.05 758.051L1096.05 755.578H1097.13V768.222Z" fill="url(#paint50_linear_175_190)"/>
<path d="M1097.13 791.015H1100.07V792.072H1092.45V791.015H1095.85V779.807L1092.61 781.741L1092.05 780.844L1096.05 778.371H1097.13V791.015Z" fill="url(#paint51_linear_175_190)"/>
<path d="M1095.93 800.964C1097.36 800.964 1098.44 801.569 1099.17 802.779C1099.92 803.976 1100.29 805.717 1100.29 808.004C1100.29 810.291 1099.92 812.039 1099.17 813.249C1098.44 814.459 1097.36 815.064 1095.93 815.064C1094.52 815.064 1093.44 814.459 1092.69 813.249C1091.94 812.039 1091.57 810.291 1091.57 808.004C1091.57 805.731 1091.94 803.989 1092.69 802.779C1093.44 801.569 1094.52 800.964 1095.93 800.964ZM1092.99 808.004C1092.99 809.626 1093.14 810.896 1093.43 811.813L1097.87 802.978C1097.4 802.353 1096.76 802.041 1095.93 802.041C1095.01 802.041 1094.29 802.533 1093.77 803.517C1093.25 804.487 1092.99 805.983 1092.99 808.004ZM1095.93 813.967C1096.86 813.967 1097.59 813.482 1098.11 812.511C1098.63 811.528 1098.89 810.025 1098.89 808.004C1098.89 806.289 1098.72 804.959 1098.39 804.015L1093.95 812.93C1094.43 813.622 1095.09 813.967 1095.93 813.967Z" fill="url(#paint52_linear_175_190)"/>
<path d="M1097.13 836.601H1100.07V837.658H1092.45V836.601H1095.85V825.392L1092.61 827.327L1092.05 826.429L1096.05 823.956H1097.13V836.601Z" fill="url(#paint53_linear_175_190)"/>
<path d="M1095.93 846.55C1097.36 846.55 1098.44 847.155 1099.17 848.365C1099.92 849.561 1100.29 851.303 1100.29 853.59C1100.29 855.877 1099.92 857.625 1099.17 858.835C1098.44 860.045 1097.36 860.65 1095.93 860.65C1094.52 860.65 1093.44 860.045 1092.69 858.835C1091.94 857.625 1091.57 855.877 1091.57 853.59C1091.57 851.316 1091.94 849.574 1092.69 848.365C1093.44 847.155 1094.52 846.55 1095.93 846.55ZM1092.99 853.59C1092.99 855.212 1093.14 856.482 1093.43 857.399L1097.87 848.564C1097.4 847.939 1096.76 847.627 1095.93 847.627C1095.01 847.627 1094.29 848.119 1093.77 849.102C1093.25 850.073 1092.99 851.569 1092.99 853.59ZM1095.93 859.553C1096.86 859.553 1097.59 859.068 1098.11 858.097C1098.63 857.113 1098.89 855.611 1098.89 853.59C1098.89 851.875 1098.72 850.545 1098.39 849.601L1093.95 858.516C1094.43 859.207 1095.09 859.553 1095.93 859.553Z" fill="url(#paint54_linear_175_190)"/>
<path d="M1095.93 869.342C1097.36 869.342 1098.44 869.947 1099.17 871.157C1099.92 872.354 1100.29 874.096 1100.29 876.383C1100.29 878.669 1099.92 880.418 1099.17 881.628C1098.44 882.838 1097.36 883.443 1095.93 883.443C1094.52 883.443 1093.44 882.838 1092.69 881.628C1091.94 880.418 1091.57 878.669 1091.57 876.383C1091.57 874.109 1091.94 872.367 1092.69 871.157C1093.44 869.947 1094.52 869.342 1095.93 869.342ZM1092.99 876.383C1092.99 878.005 1093.14 879.274 1093.43 880.192L1097.87 871.357C1097.4 870.732 1096.76 870.419 1095.93 870.419C1095.01 870.419 1094.29 870.911 1093.77 871.895C1093.25 872.866 1092.99 874.362 1092.99 876.383ZM1095.93 882.346C1096.86 882.346 1097.59 881.86 1098.11 880.89C1098.63 879.906 1098.89 878.404 1098.89 876.383C1098.89 874.667 1098.72 873.338 1098.39 872.394L1093.95 881.309C1094.43 882 1095.09 882.346 1095.93 882.346Z" fill="url(#paint55_linear_175_190)"/>
<path d="M1097.13 904.979H1100.07V906.036H1092.45V904.979H1095.85V893.771L1092.61 895.705L1092.05 894.808L1096.05 892.335H1097.13V904.979Z" fill="url(#paint56_linear_175_190)"/>
<path d="M1095.93 914.928C1097.36 914.928 1098.44 915.533 1099.17 916.743C1099.92 917.94 1100.29 919.681 1100.29 921.968C1100.29 924.255 1099.92 926.003 1099.17 927.213C1098.44 928.423 1097.36 929.028 1095.93 929.028C1094.52 929.028 1093.44 928.423 1092.69 927.213C1091.94 926.003 1091.57 924.255 1091.57 921.968C1091.57 919.695 1091.94 917.953 1092.69 916.743C1093.44 915.533 1094.52 914.928 1095.93 914.928ZM1092.99 921.968C1092.99 923.59 1093.14 924.86 1093.43 925.777L1097.87 916.942C1097.4 916.317 1096.76 916.005 1095.93 916.005C1095.01 916.005 1094.29 916.497 1093.77 917.481C1093.25 918.451 1092.99 919.947 1092.99 921.968ZM1095.93 927.931C1096.86 927.931 1097.59 927.446 1098.11 926.475C1098.63 925.492 1098.89 923.989 1098.89 921.968C1098.89 920.253 1098.72 918.923 1098.39 917.979L1093.95 926.894C1094.43 927.586 1095.09 927.931 1095.93 927.931Z" fill="url(#paint57_linear_175_190)"/>
<path d="M1097.13 950.565H1100.07V951.622H1092.45V950.565H1095.85V939.356L1092.61 941.291L1092.05 940.393L1096.05 937.92H1097.13V950.565Z" fill="url(#paint58_linear_175_190)"/>
<path d="M1097.13 973.357H1100.07V974.414H1092.45V973.357H1095.85V962.149L1092.61 964.084L1092.05 963.186L1096.05 960.713H1097.13V973.357Z" fill="url(#paint59_linear_175_190)"/>
<path d="M1133.07 732.586C1134.5 732.586 1135.58 733.191 1136.31 734.4C1137.06 735.597 1137.43 737.339 1137.43 739.626C1137.43 741.913 1137.06 743.661 1136.31 744.871C1135.58 746.081 1134.5 746.686 1133.07 746.686C1131.66 746.686 1130.58 746.081 1129.83 744.871C1129.08 743.661 1128.71 741.913 1128.71 739.626C1128.71 737.352 1129.08 735.61 1129.83 734.4C1130.58 733.191 1131.66 732.586 1133.07 732.586ZM1130.13 739.626C1130.13 741.248 1130.28 742.518 1130.57 743.435L1135.01 734.6C1134.54 733.975 1133.9 733.663 1133.07 733.663C1132.15 733.663 1131.43 734.155 1130.91 735.138C1130.39 736.109 1130.13 737.605 1130.13 739.626ZM1133.07 745.589C1134 745.589 1134.73 745.104 1135.25 744.133C1135.77 743.149 1136.03 741.647 1136.03 739.626C1136.03 737.911 1135.86 736.581 1135.53 735.637L1131.09 744.552C1131.57 745.243 1132.23 745.589 1133.07 745.589Z" fill="url(#paint60_linear_175_190)"/>
<path d="M1134.27 768.222H1137.21V769.279H1129.59V768.222H1132.99V757.014L1129.75 758.948L1129.19 758.051L1133.19 755.578H1134.27V768.222Z" fill="url(#paint61_linear_175_190)"/>
<path d="M1133.07 778.171C1134.5 778.171 1135.58 778.776 1136.31 779.986C1137.06 781.183 1137.43 782.924 1137.43 785.211C1137.43 787.498 1137.06 789.247 1136.31 790.457C1135.58 791.666 1134.5 792.271 1133.07 792.271C1131.66 792.271 1130.58 791.666 1129.83 790.457C1129.08 789.247 1128.71 787.498 1128.71 785.211C1128.71 782.938 1129.08 781.196 1129.83 779.986C1130.58 778.776 1131.66 778.171 1133.07 778.171ZM1130.13 785.211C1130.13 786.833 1130.28 788.103 1130.57 789.021L1135.01 780.186C1134.54 779.561 1133.9 779.248 1133.07 779.248C1132.15 779.248 1131.43 779.74 1130.91 780.724C1130.39 781.695 1130.13 783.19 1130.13 785.211ZM1133.07 791.174C1134 791.174 1134.73 790.689 1135.25 789.719C1135.77 788.735 1136.03 787.232 1136.03 785.211C1136.03 783.496 1135.86 782.167 1135.53 781.223L1131.09 790.137C1131.57 790.829 1132.23 791.174 1133.07 791.174Z" fill="url(#paint62_linear_175_190)"/>
<path d="M1133.07 800.964C1134.5 800.964 1135.58 801.569 1136.31 802.779C1137.06 803.976 1137.43 805.717 1137.43 808.004C1137.43 810.291 1137.06 812.039 1136.31 813.249C1135.58 814.459 1134.5 815.064 1133.07 815.064C1131.66 815.064 1130.58 814.459 1129.83 813.249C1129.08 812.039 1128.71 810.291 1128.71 808.004C1128.71 805.731 1129.08 803.989 1129.83 802.779C1130.58 801.569 1131.66 800.964 1133.07 800.964ZM1130.13 808.004C1130.13 809.626 1130.28 810.896 1130.57 811.813L1135.01 802.978C1134.54 802.353 1133.9 802.041 1133.07 802.041C1132.15 802.041 1131.43 802.533 1130.91 803.517C1130.39 804.487 1130.13 805.983 1130.13 808.004ZM1133.07 813.967C1134 813.967 1134.73 813.482 1135.25 812.511C1135.77 811.528 1136.03 810.025 1136.03 808.004C1136.03 806.289 1135.86 804.959 1135.53 804.015L1131.09 812.93C1131.57 813.622 1132.23 813.967 1133.07 813.967Z" fill="url(#paint63_linear_175_190)"/>
<path d="M1134.27 836.601H1137.21V837.658H1129.59V836.601H1132.99V825.392L1129.75 827.327L1129.19 826.429L1133.19 823.956H1134.27V836.601Z" fill="url(#paint64_linear_175_190)"/>
<path d="M1133.07 846.55C1134.5 846.55 1135.58 847.155 1136.31 848.365C1137.06 849.561 1137.43 851.303 1137.43 853.59C1137.43 855.877 1137.06 857.625 1136.31 858.835C1135.58 860.045 1134.5 860.65 1133.07 860.65C1131.66 860.65 1130.58 860.045 1129.83 858.835C1129.08 857.625 1128.71 855.877 1128.71 853.59C1128.71 851.316 1129.08 849.574 1129.83 848.365C1130.58 847.155 1131.66 846.55 1133.07 846.55ZM1130.13 853.59C1130.13 855.212 1130.28 856.482 1130.57 857.399L1135.01 848.564C1134.54 847.939 1133.9 847.627 1133.07 847.627C1132.15 847.627 1131.43 848.119 1130.91 849.102C1130.39 850.073 1130.13 851.569 1130.13 853.59ZM1133.07 859.553C1134 859.553 1134.73 859.068 1135.25 858.097C1135.77 857.113 1136.03 855.611 1136.03 853.59C1136.03 851.875 1135.86 850.545 1135.53 849.601L1131.09 858.516C1131.57 859.207 1132.23 859.553 1133.07 859.553Z" fill="url(#paint65_linear_175_190)"/>
<path d="M1134.27 882.186H1137.21V883.243H1129.59V882.186H1132.99V870.978L1129.75 872.912L1129.19 872.015L1133.19 869.542H1134.27V882.186Z" fill="url(#paint66_linear_175_190)"/>
<path d="M1133.07 892.135C1134.5 892.135 1135.58 892.74 1136.31 893.95C1137.06 895.147 1137.43 896.888 1137.43 899.175C1137.43 901.462 1137.06 903.211 1136.31 904.421C1135.58 905.63 1134.5 906.235 1133.07 906.235C1131.66 906.235 1130.58 905.63 1129.83 904.421C1129.08 903.211 1128.71 901.462 1128.71 899.175C1128.71 896.902 1129.08 895.16 1129.83 893.95C1130.58 892.74 1131.66 892.135 1133.07 892.135ZM1130.13 899.175C1130.13 900.797 1130.28 902.067 1130.57 902.985L1135.01 894.15C1134.54 893.525 1133.9 893.212 1133.07 893.212C1132.15 893.212 1131.43 893.704 1130.91 894.688C1130.39 895.659 1130.13 897.154 1130.13 899.175ZM1133.07 905.139C1134 905.139 1134.73 904.653 1135.25 903.683C1135.77 902.699 1136.03 901.196 1136.03 899.175C1136.03 897.46 1135.86 896.131 1135.53 895.187L1131.09 904.101C1131.57 904.793 1132.23 905.139 1133.07 905.139Z" fill="url(#paint67_linear_175_190)"/>
<path d="M1133.07 914.928C1134.5 914.928 1135.58 915.533 1136.31 916.743C1137.06 917.94 1137.43 919.681 1137.43 921.968C1137.43 924.255 1137.06 926.003 1136.31 927.213C1135.58 928.423 1134.5 929.028 1133.07 929.028C1131.66 929.028 1130.58 928.423 1129.83 927.213C1129.08 926.003 1128.71 924.255 1128.71 921.968C1128.71 919.695 1129.08 917.953 1129.83 916.743C1130.58 915.533 1131.66 914.928 1133.07 914.928ZM1130.13 921.968C1130.13 923.59 1130.28 924.86 1130.57 925.777L1135.01 916.942C1134.54 916.317 1133.9 916.005 1133.07 916.005C1132.15 916.005 1131.43 916.497 1130.91 917.481C1130.39 918.451 1130.13 919.947 1130.13 921.968ZM1133.07 927.931C1134 927.931 1134.73 927.446 1135.25 926.475C1135.77 925.492 1136.03 923.989 1136.03 921.968C1136.03 920.253 1135.86 918.923 1135.53 917.979L1131.09 926.894C1131.57 927.586 1132.23 927.931 1133.07 927.931Z" fill="url(#paint68_linear_175_190)"/>
<path d="M1134.27 950.565H1137.21V951.622H1129.59V950.565H1132.99V939.356L1129.75 941.291L1129.19 940.393L1133.19 937.92H1134.27V950.565Z" fill="url(#paint69_linear_175_190)"/>
<path d="M1133.07 960.514C1134.5 960.514 1135.58 961.119 1136.31 962.329C1137.06 963.525 1137.43 965.267 1137.43 967.554C1137.43 969.841 1137.06 971.589 1136.31 972.799C1135.58 974.009 1134.5 974.614 1133.07 974.614C1131.66 974.614 1130.58 974.009 1129.83 972.799C1129.08 971.589 1128.71 969.841 1128.71 967.554C1128.71 965.28 1129.08 963.538 1129.83 962.329C1130.58 961.119 1131.66 960.514 1133.07 960.514ZM1130.13 967.554C1130.13 969.176 1130.28 970.446 1130.57 971.363L1135.01 962.528C1134.54 961.903 1133.9 961.591 1133.07 961.591C1132.15 961.591 1131.43 962.083 1130.91 963.066C1130.39 964.037 1130.13 965.533 1130.13 967.554ZM1133.07 973.517C1134 973.517 1134.73 973.032 1135.25 972.061C1135.77 971.077 1136.03 969.575 1136.03 967.554C1136.03 965.839 1135.86 964.509 1135.53 963.565L1131.09 972.48C1131.57 973.171 1132.23 973.517 1133.07 973.517Z" fill="url(#paint70_linear_175_190)"/>
<path d="M1134.27 996.15H1137.21V997.207H1129.59V996.15H1132.99V984.942L1129.75 986.876L1129.19 985.979L1133.19 983.506H1134.27V996.15Z" fill="url(#paint71_linear_175_190)"/>
<path d="M1134.27 1018.94H1137.21V1020H1129.59V1018.94H1132.99V1007.73L1129.75 1009.67L1129.19 1008.77L1133.19 1006.3H1134.27V1018.94Z" fill="url(#paint72_linear_175_190)"/>
<path d="M1077.36 755.378C1078.79 755.378 1079.87 755.983 1080.6 757.193C1081.35 758.39 1081.72 760.132 1081.72 762.419C1081.72 764.705 1081.35 766.454 1080.6 767.664C1079.87 768.874 1078.79 769.479 1077.36 769.479C1075.95 769.479 1074.87 768.874 1074.12 767.664C1073.37 766.454 1073 764.705 1073 762.419C1073 760.145 1073.37 758.403 1074.12 757.193C1074.87 755.983 1075.95 755.378 1077.36 755.378ZM1074.42 762.419C1074.42 764.041 1074.57 765.31 1074.86 766.228L1079.3 757.393C1078.83 756.768 1078.19 756.455 1077.36 756.455C1076.44 756.455 1075.72 756.947 1075.2 757.931C1074.68 758.902 1074.42 760.398 1074.42 762.419ZM1077.36 768.382C1078.29 768.382 1079.02 767.896 1079.54 766.926C1080.06 765.942 1080.32 764.439 1080.32 762.419C1080.32 760.703 1080.15 759.374 1079.82 758.43L1075.38 767.345C1075.86 768.036 1076.52 768.382 1077.36 768.382Z" fill="url(#paint73_linear_175_190)"/>
<path d="M1077.36 778.171C1078.79 778.171 1079.87 778.776 1080.6 779.986C1081.35 781.183 1081.72 782.924 1081.72 785.211C1081.72 787.498 1081.35 789.247 1080.6 790.457C1079.87 791.666 1078.79 792.271 1077.36 792.271C1075.95 792.271 1074.87 791.666 1074.12 790.457C1073.37 789.247 1073 787.498 1073 785.211C1073 782.938 1073.37 781.196 1074.12 779.986C1074.87 778.776 1075.95 778.171 1077.36 778.171ZM1074.42 785.211C1074.42 786.833 1074.57 788.103 1074.86 789.021L1079.3 780.186C1078.83 779.561 1078.19 779.248 1077.36 779.248C1076.44 779.248 1075.72 779.74 1075.2 780.724C1074.68 781.695 1074.42 783.19 1074.42 785.211ZM1077.36 791.174C1078.29 791.174 1079.02 790.689 1079.54 789.719C1080.06 788.735 1080.32 787.232 1080.32 785.211C1080.32 783.496 1080.15 782.167 1079.82 781.223L1075.38 790.137C1075.86 790.829 1076.52 791.174 1077.36 791.174Z" fill="url(#paint74_linear_175_190)"/>
<path d="M1078.56 813.808H1081.5V814.865H1073.88V813.808H1077.28V802.599L1074.04 804.534L1073.48 803.636L1077.48 801.163H1078.56V813.808Z" fill="url(#paint75_linear_175_190)"/>
<path d="M1077.36 823.757C1078.79 823.757 1079.87 824.362 1080.6 825.572C1081.35 826.768 1081.72 828.51 1081.72 830.797C1081.72 833.084 1081.35 834.832 1080.6 836.042C1079.87 837.252 1078.79 837.857 1077.36 837.857C1075.95 837.857 1074.87 837.252 1074.12 836.042C1073.37 834.832 1073 833.084 1073 830.797C1073 828.523 1073.37 826.782 1074.12 825.572C1074.87 824.362 1075.95 823.757 1077.36 823.757ZM1074.42 830.797C1074.42 832.419 1074.57 833.689 1074.86 834.606L1079.3 825.771C1078.83 825.146 1078.19 824.834 1077.36 824.834C1076.44 824.834 1075.72 825.326 1075.2 826.31C1074.68 827.28 1074.42 828.776 1074.42 830.797ZM1077.36 836.76C1078.29 836.76 1079.02 836.275 1079.54 835.304C1080.06 834.32 1080.32 832.818 1080.32 830.797C1080.32 829.082 1080.15 827.752 1079.82 826.808L1075.38 835.723C1075.86 836.414 1076.52 836.76 1077.36 836.76Z" fill="url(#paint76_linear_175_190)"/>
<path d="M1078.56 859.393H1081.5V860.45H1073.88V859.393H1077.28V848.185L1074.04 850.12L1073.48 849.222L1077.48 846.749H1078.56V859.393Z" fill="url(#paint77_linear_175_190)"/>
<path d="M1078.56 882.186H1081.5V883.243H1073.88V882.186H1077.28V870.978L1074.04 872.912L1073.48 872.015L1077.48 869.542H1078.56V882.186Z" fill="url(#paint78_linear_175_190)"/>
<path d="M1115.7 722.637H1118.64V723.694H1111.02V722.637H1114.42V711.428L1111.18 713.363L1110.62 712.465L1114.62 709.992H1115.7V722.637Z" fill="url(#paint79_linear_175_190)"/>
<path d="M1114.5 732.586C1115.93 732.586 1117.01 733.191 1117.74 734.4C1118.49 735.597 1118.86 737.339 1118.86 739.626C1118.86 741.913 1118.49 743.661 1117.74 744.871C1117.01 746.081 1115.93 746.686 1114.5 746.686C1113.09 746.686 1112.01 746.081 1111.26 744.871C1110.51 743.661 1110.14 741.913 1110.14 739.626C1110.14 737.352 1110.51 735.61 1111.26 734.4C1112.01 733.191 1113.09 732.586 1114.5 732.586ZM1111.56 739.626C1111.56 741.248 1111.71 742.518 1112 743.435L1116.44 734.6C1115.97 733.975 1115.33 733.663 1114.5 733.663C1113.58 733.663 1112.86 734.155 1112.34 735.138C1111.82 736.109 1111.56 737.605 1111.56 739.626ZM1114.5 745.589C1115.43 745.589 1116.16 745.104 1116.68 744.133C1117.2 743.149 1117.46 741.647 1117.46 739.626C1117.46 737.911 1117.29 736.581 1116.96 735.637L1112.52 744.552C1113 745.243 1113.66 745.589 1114.5 745.589Z" fill="url(#paint80_linear_175_190)"/>
<path d="M1115.7 768.222H1118.64V769.279H1111.02V768.222H1114.42V757.014L1111.18 758.948L1110.62 758.051L1114.62 755.578H1115.7V768.222Z" fill="url(#paint81_linear_175_190)"/>
<path d="M1115.7 791.015H1118.64V792.072H1111.02V791.015H1114.42V779.807L1111.18 781.741L1110.62 780.844L1114.62 778.371H1115.7V791.015Z" fill="url(#paint82_linear_175_190)"/>
<path d="M1114.5 800.964C1115.93 800.964 1117.01 801.569 1117.74 802.779C1118.49 803.976 1118.86 805.717 1118.86 808.004C1118.86 810.291 1118.49 812.039 1117.74 813.249C1117.01 814.459 1115.93 815.064 1114.5 815.064C1113.09 815.064 1112.01 814.459 1111.26 813.249C1110.51 812.039 1110.14 810.291 1110.14 808.004C1110.14 805.731 1110.51 803.989 1111.26 802.779C1112.01 801.569 1113.09 800.964 1114.5 800.964ZM1111.56 808.004C1111.56 809.626 1111.71 810.896 1112 811.813L1116.44 802.978C1115.97 802.353 1115.33 802.041 1114.5 802.041C1113.58 802.041 1112.86 802.533 1112.34 803.517C1111.82 804.487 1111.56 805.983 1111.56 808.004ZM1114.5 813.967C1115.43 813.967 1116.16 813.482 1116.68 812.511C1117.2 811.528 1117.46 810.025 1117.46 808.004C1117.46 806.289 1117.29 804.959 1116.96 804.015L1112.52 812.93C1113 813.622 1113.66 813.967 1114.5 813.967Z" fill="url(#paint83_linear_175_190)"/>
<path d="M1115.7 836.601H1118.64V837.658H1111.02V836.601H1114.42V825.392L1111.18 827.327L1110.62 826.429L1114.62 823.956H1115.7V836.601Z" fill="url(#paint84_linear_175_190)"/>
<path d="M1115.7 859.393H1118.64V860.45H1111.02V859.393H1114.42V848.185L1111.18 850.12L1110.62 849.222L1114.62 846.749H1115.7V859.393Z" fill="url(#paint85_linear_175_190)"/>
<path d="M1114.5 869.342C1115.93 869.342 1117.01 869.947 1117.74 871.157C1118.49 872.354 1118.86 874.096 1118.86 876.383C1118.86 878.669 1118.49 880.418 1117.74 881.628C1117.01 882.838 1115.93 883.443 1114.5 883.443C1113.09 883.443 1112.01 882.838 1111.26 881.628C1110.51 880.418 1110.14 878.669 1110.14 876.383C1110.14 874.109 1110.51 872.367 1111.26 871.157C1112.01 869.947 1113.09 869.342 1114.5 869.342ZM1111.56 876.383C1111.56 878.005 1111.71 879.274 1112 880.192L1116.44 871.357C1115.97 870.732 1115.33 870.419 1114.5 870.419C1113.58 870.419 1112.86 870.911 1112.34 871.895C1111.82 872.866 1111.56 874.362 1111.56 876.383ZM1114.5 882.346C1115.43 882.346 1116.16 881.86 1116.68 880.89C1117.2 879.906 1117.46 878.404 1117.46 876.383C1117.46 874.667 1117.29 873.338 1116.96 872.394L1112.52 881.309C1113 882 1113.66 882.346 1114.5 882.346Z" fill="url(#paint86_linear_175_190)"/>
<path d="M1115.7 904.979H1118.64V906.036H1111.02V904.979H1114.42V893.771L1111.18 895.705L1110.62 894.808L1114.62 892.335H1115.7V904.979Z" fill="url(#paint87_linear_175_190)"/>
<path d="M1114.5 914.928C1115.93 914.928 1117.01 915.533 1117.74 916.743C1118.49 917.94 1118.86 919.681 1118.86 921.968C1118.86 924.255 1118.49 926.003 1117.74 927.213C1117.01 928.423 1115.93 929.028 1114.5 929.028C1113.09 929.028 1112.01 928.423 1111.26 927.213C1110.51 926.003 1110.14 924.255 1110.14 921.968C1110.14 919.695 1110.51 917.953 1111.26 916.743C1112.01 915.533 1113.09 914.928 1114.5 914.928ZM1111.56 921.968C1111.56 923.59 1111.71 924.86 1112 925.777L1116.44 916.942C1115.97 916.317 1115.33 916.005 1114.5 916.005C1113.58 916.005 1112.86 916.497 1112.34 917.481C1111.82 918.451 1111.56 919.947 1111.56 921.968ZM1114.5 927.931C1115.43 927.931 1116.16 927.446 1116.68 926.475C1117.2 925.492 1117.46 923.989 1117.46 921.968C1117.46 920.253 1117.29 918.923 1116.96 917.979L1112.52 926.894C1113 927.586 1113.66 927.931 1114.5 927.931Z" fill="url(#paint88_linear_175_190)"/>
<path d="M1151.64 709.793C1153.07 709.793 1154.15 710.398 1154.88 711.608C1155.63 712.804 1156 714.546 1156 716.833C1156 719.12 1155.63 720.868 1154.88 722.078C1154.15 723.288 1153.07 723.893 1151.64 723.893C1150.23 723.893 1149.15 723.288 1148.4 722.078C1147.65 720.868 1147.28 719.12 1147.28 716.833C1147.28 714.559 1147.65 712.818 1148.4 711.608C1149.15 710.398 1150.23 709.793 1151.64 709.793ZM1148.7 716.833C1148.7 718.455 1148.85 719.725 1149.14 720.642L1153.58 711.807C1153.11 711.182 1152.47 710.87 1151.64 710.87C1150.72 710.87 1150 711.362 1149.48 712.346C1148.96 713.316 1148.7 714.812 1148.7 716.833ZM1151.64 722.796C1152.57 722.796 1153.3 722.311 1153.82 721.34C1154.34 720.356 1154.6 718.854 1154.6 716.833C1154.6 715.118 1154.43 713.788 1154.1 712.844L1149.66 721.759C1150.14 722.45 1150.8 722.796 1151.64 722.796Z" fill="url(#paint89_linear_175_190)"/>
<path d="M1152.84 745.429H1155.78V746.486H1148.16V745.429H1151.56V734.221L1148.32 736.156L1147.76 735.258L1151.76 732.785H1152.84V745.429Z" fill="url(#paint90_linear_175_190)"/>
<path d="M1152.84 768.222H1155.78V769.279H1148.16V768.222H1151.56V757.014L1148.32 758.948L1147.76 758.051L1151.76 755.578H1152.84V768.222Z" fill="url(#paint91_linear_175_190)"/>
<path d="M1151.64 778.171C1153.07 778.171 1154.15 778.776 1154.88 779.986C1155.63 781.183 1156 782.924 1156 785.211C1156 787.498 1155.63 789.247 1154.88 790.457C1154.15 791.666 1153.07 792.271 1151.64 792.271C1150.23 792.271 1149.15 791.666 1148.4 790.457C1147.65 789.247 1147.28 787.498 1147.28 785.211C1147.28 782.938 1147.65 781.196 1148.4 779.986C1149.15 778.776 1150.23 778.171 1151.64 778.171ZM1148.7 785.211C1148.7 786.833 1148.85 788.103 1149.14 789.021L1153.58 780.186C1153.11 779.561 1152.47 779.248 1151.64 779.248C1150.72 779.248 1150 779.74 1149.48 780.724C1148.96 781.695 1148.7 783.19 1148.7 785.211ZM1151.64 791.174C1152.57 791.174 1153.3 790.689 1153.82 789.719C1154.34 788.735 1154.6 787.232 1154.6 785.211C1154.6 783.496 1154.43 782.167 1154.1 781.223L1149.66 790.137C1150.14 790.829 1150.8 791.174 1151.64 791.174Z" fill="url(#paint92_linear_175_190)"/>
<path d="M1151.64 800.964C1153.07 800.964 1154.15 801.569 1154.88 802.779C1155.63 803.976 1156 805.717 1156 808.004C1156 810.291 1155.63 812.039 1154.88 813.249C1154.15 814.459 1153.07 815.064 1151.64 815.064C1150.23 815.064 1149.15 814.459 1148.4 813.249C1147.65 812.039 1147.28 810.291 1147.28 808.004C1147.28 805.731 1147.65 803.989 1148.4 802.779C1149.15 801.569 1150.23 800.964 1151.64 800.964ZM1148.7 808.004C1148.7 809.626 1148.85 810.896 1149.14 811.813L1153.58 802.978C1153.11 802.353 1152.47 802.041 1151.64 802.041C1150.72 802.041 1150 802.533 1149.48 803.517C1148.96 804.487 1148.7 805.983 1148.7 808.004ZM1151.64 813.967C1152.57 813.967 1153.3 813.482 1153.82 812.511C1154.34 811.528 1154.6 810.025 1154.6 808.004C1154.6 806.289 1154.43 804.959 1154.1 804.015L1149.66 812.93C1150.14 813.622 1150.8 813.967 1151.64 813.967Z" fill="url(#paint93_linear_175_190)"/>
</g>
<defs>
<filter id="filter0_f_175_190" x="-382.19" y="0.809998" width="2141.38" height="1500.38" filterUnits="userSpaceOnUse" color-interpolation-filters="sRGB">
<feFlood flood-opacity="0" result="BackgroundImageFix"/>
<feBlend mode="normal" in="SourceGraphic" in2="BackgroundImageFix" result="shape"/>
<feGaussianBlur stdDeviation="200.095" result="effect1_foregroundBlur_175_190"/>
</filter>
<linearGradient id="paint0_linear_175_190" x1="228.5" y1="987" x2="228.5" y2="1298.38" gradientUnits="userSpaceOnUse">
<stop stop-color="#F7DD43"/>
<stop offset="1" stop-color="#F7DD43" stop-opacity="0"/>
</linearGradient>
<linearGradient id="paint1_linear_175_190" x1="228.5" y1="987" x2="228.5" y2="1298.38" gradientUnits="userSpaceOnUse">
<stop stop-color="#F7DD43"/>
<stop offset="1" stop-color="#F7DD43" stop-opacity="0"/>
</linearGradient>
<linearGradient id="paint2_linear_175_190" x1="228.5" y1="987" x2="228.5" y2="1298.38" gradientUnits="userSpaceOnUse">
<stop stop-color="#F7DD43"/>
<stop offset="1" stop-color="#F7DD43" stop-opacity="0"/>
</linearGradient>
<linearGradient id="paint3_linear_175_190" x1="228.5" y1="987" x2="228.5" y2="1298.38" gradientUnits="userSpaceOnUse">
<stop stop-color="#F7DD43"/>
<stop offset="1" stop-color="#F7DD43" stop-opacity="0"/>
</linearGradient>
<linearGradient id="paint4_linear_175_190" x1="228.5" y1="987" x2="228.5" y2="1298.38" gradientUnits="userSpaceOnUse">
<stop stop-color="#F7DD43"/>
<stop offset="1" stop-color="#F7DD43" stop-opacity="0"/>
</linearGradient>
<linearGradient id="paint5_linear_175_190" x1="228.5" y1="987" x2="228.5" y2="1298.38" gradientUnits="userSpaceOnUse">
<stop stop-color="#F7DD43"/>
<stop offset="1" stop-color="#F7DD43" stop-opacity="0"/>
</linearGradient>
<linearGradient id="paint6_linear_175_190" x1="228.5" y1="987" x2="228.5" y2="1298.38" gradientUnits="userSpaceOnUse">
<stop stop-color="#F7DD43"/>
<stop offset="1" stop-color="#F7DD43" stop-opacity="0"/>
</linearGradient>
<linearGradient id="paint7_linear_175_190" x1="228.5" y1="987" x2="228.5" y2="1298.38" gradientUnits="userSpaceOnUse">
<stop stop-color="#F7DD43"/>
<stop offset="1" stop-color="#F7DD43" stop-opacity="0"/>
</linearGradient>
<linearGradient id="paint8_linear_175_190" x1="228.5" y1="987" x2="228.5" y2="1298.38" gradientUnits="userSpaceOnUse">
<stop stop-color="#F7DD43"/>
<stop offset="1" stop-color="#F7DD43" stop-opacity="0"/>
</linearGradient>
<linearGradient id="paint9_linear_175_190" x1="228.5" y1="987" x2="228.5" y2="1298.38" gradientUnits="userSpaceOnUse">
<stop stop-color="#F7DD43"/>
<stop offset="1" stop-color="#F7DD43" stop-opacity="0"/>
</linearGradient>
<linearGradient id="paint10_linear_175_190" x1="228.5" y1="987" x2="228.5" y2="1298.38" gradientUnits="userSpaceOnUse">
<stop stop-color="#F7DD43"/>
<stop offset="1" stop-color="#F7DD43" stop-opacity="0"/>
</linearGradient>
<linearGradient id="paint11_linear_175_190" x1="228.5" y1="987" x2="228.5" y2="1298.38" gradientUnits="userSpaceOnUse">
<stop stop-color="#F7DD43"/>
<stop offset="1" stop-color="#F7DD43" stop-opacity="0"/>
</linearGradient>
<linearGradient id="paint12_linear_175_190" x1="228.5" y1="987" x2="228.5" y2="1298.38" gradientUnits="userSpaceOnUse">
<stop stop-color="#F7DD43"/>
<stop offset="1" stop-color="#F7DD43" stop-opacity="0"/>
</linearGradient>
<linearGradient id="paint13_linear_175_190" x1="228.5" y1="987" x2="228.5" y2="1298.38" gradientUnits="userSpaceOnUse">
<stop stop-color="#F7DD43"/>
<stop offset="1" stop-color="#F7DD43" stop-opacity="0"/>
</linearGradient>
<linearGradient id="paint14_linear_175_190" x1="228.5" y1="987" x2="228.5" y2="1298.38" gradientUnits="userSpaceOnUse">
<stop stop-color="#F7DD43"/>
<stop offset="1" stop-color="#F7DD43" stop-opacity="0"/>
</linearGradient>
<linearGradient id="paint15_linear_175_190" x1="228.5" y1="987" x2="228.5" y2="1298.38" gradientUnits="userSpaceOnUse">
<stop stop-color="#F7DD43"/>
<stop offset="1" stop-color="#F7DD43" stop-opacity="0"/>
</linearGradient>
<linearGradient id="paint16_linear_175_190" x1="228.5" y1="987" x2="228.5" y2="1298.38" gradientUnits="userSpaceOnUse">
<stop stop-color="#F7DD43"/>
<stop offset="1" stop-color="#F7DD43" stop-opacity="0"/>
</linearGradient>
<linearGradient id="paint17_linear_175_190" x1="228.5" y1="987" x2="228.5" y2="1298.38" gradientUnits="userSpaceOnUse">
<stop stop-color="#F7DD43"/>
<stop offset="1" stop-color="#F7DD43" stop-opacity="0"/>
</linearGradient>
<linearGradient id="paint18_linear_175_190" x1="228.5" y1="987" x2="228.5" y2="1298.38" gradientUnits="userSpaceOnUse">
<stop stop-color="#F7DD43"/>
<stop offset="1" stop-color="#F7DD43" stop-opacity="0"/>
</linearGradient>
<linearGradient id="paint19_linear_175_190" x1="228.5" y1="987" x2="228.5" y2="1298.38" gradientUnits="userSpaceOnUse">
<stop stop-color="#F7DD43"/>
<stop offset="1" stop-color="#F7DD43" stop-opacity="0"/>
</linearGradient>
<linearGradient id="paint20_linear_175_190" x1="228.5" y1="987" x2="228.5" y2="1298.38" gradientUnits="userSpaceOnUse">
<stop stop-color="#F7DD43"/>
<stop offset="1" stop-color="#F7DD43" stop-opacity="0"/>
</linearGradient>
<linearGradient id="paint21_linear_175_190" x1="228.5" y1="987" x2="228.5" y2="1298.38" gradientUnits="userSpaceOnUse">
<stop stop-color="#F7DD43"/>
<stop offset="1" stop-color="#F7DD43" stop-opacity="0"/>
</linearGradient>
<linearGradient id="paint22_linear_175_190" x1="228.5" y1="987" x2="228.5" y2="1298.38" gradientUnits="userSpaceOnUse">
<stop stop-color="#F7DD43"/>
<stop offset="1" stop-color="#F7DD43" stop-opacity="0"/>
</linearGradient>
<linearGradient id="paint23_linear_175_190" x1="228.5" y1="987" x2="228.5" y2="1298.38" gradientUnits="userSpaceOnUse">
<stop stop-color="#F7DD43"/>
<stop offset="1" stop-color="#F7DD43" stop-opacity="0"/>
</linearGradient>
<linearGradient id="paint24_linear_175_190" x1="228.5" y1="987" x2="228.5" y2="1298.38" gradientUnits="userSpaceOnUse">
<stop stop-color="#F7DD43"/>
<stop offset="1" stop-color="#F7DD43" stop-opacity="0"/>
</linearGradient>
<linearGradient id="paint25_linear_175_190" x1="228.5" y1="987" x2="228.5" y2="1298.38" gradientUnits="userSpaceOnUse">
<stop stop-color="#F7DD43"/>
<stop offset="1" stop-color="#F7DD43" stop-opacity="0"/>
</linearGradient>
<linearGradient id="paint26_linear_175_190" x1="228.5" y1="987" x2="228.5" y2="1298.38" gradientUnits="userSpaceOnUse">
<stop stop-color="#F7DD43"/>
<stop offset="1" stop-color="#F7DD43" stop-opacity="0"/>
</linearGradient>
<linearGradient id="paint27_linear_175_190" x1="228.5" y1="987" x2="228.5" y2="1298.38" gradientUnits="userSpaceOnUse">
<stop stop-color="#F7DD43"/>
<stop offset="1" stop-color="#F7DD43" stop-opacity="0"/>
</linearGradient>
<linearGradient id="paint28_linear_175_190" x1="228.5" y1="987" x2="228.5" y2="1298.38" gradientUnits="userSpaceOnUse">
<stop stop-color="#F7DD43"/>
<stop offset="1" stop-color="#F7DD43" stop-opacity="0"/>
</linearGradient>
<linearGradient id="paint29_linear_175_190" x1="228.5" y1="987" x2="228.5" y2="1298.38" gradientUnits="userSpaceOnUse">
<stop stop-color="#F7DD43"/>
<stop offset="1" stop-color="#F7DD43" stop-opacity="0"/>
</linearGradient>
<linearGradient id="paint30_linear_175_190" x1="228.5" y1="987" x2="228.5" y2="1298.38" gradientUnits="userSpaceOnUse">
<stop stop-color="#F7DD43"/>
<stop offset="1" stop-color="#F7DD43" stop-opacity="0"/>
</linearGradient>
<linearGradient id="paint31_linear_175_190" x1="228.5" y1="987" x2="228.5" y2="1298.38" gradientUnits="userSpaceOnUse">
<stop stop-color="#F7DD43"/>
<stop offset="1" stop-color="#F7DD43" stop-opacity="0"/>
</linearGradient>
<linearGradient id="paint32_linear_175_190" x1="228.5" y1="987" x2="228.5" y2="1298.38" gradientUnits="userSpaceOnUse">
<stop stop-color="#F7DD43"/>
<stop offset="1" stop-color="#F7DD43" stop-opacity="0"/>
</linearGradient>
<linearGradient id="paint33_linear_175_190" x1="228.5" y1="987" x2="228.5" y2="1298.38" gradientUnits="userSpaceOnUse">
<stop stop-color="#F7DD43"/>
<stop offset="1" stop-color="#F7DD43" stop-opacity="0"/>
</linearGradient>
<linearGradient id="paint34_linear_175_190" x1="228.5" y1="987" x2="228.5" y2="1298.38" gradientUnits="userSpaceOnUse">
<stop stop-color="#F7DD43"/>
<stop offset="1" stop-color="#F7DD43" stop-opacity="0"/>
</linearGradient>
<linearGradient id="paint35_linear_175_190" x1="228.5" y1="987" x2="228.5" y2="1298.38" gradientUnits="userSpaceOnUse">
<stop stop-color="#F7DD43"/>
<stop offset="1" stop-color="#F7DD43" stop-opacity="0"/>
</linearGradient>
<linearGradient id="paint36_linear_175_190" x1="228.5" y1="987" x2="228.5" y2="1298.38" gradientUnits="userSpaceOnUse">
<stop stop-color="#F7DD43"/>
<stop offset="1" stop-color="#F7DD43" stop-opacity="0"/>
</linearGradient>
<linearGradient id="paint37_linear_175_190" x1="228.5" y1="987" x2="228.5" y2="1298.38" gradientUnits="userSpaceOnUse">
<stop stop-color="#F7DD43"/>
<stop offset="1" stop-color="#F7DD43" stop-opacity="0"/>
</linearGradient>
<linearGradient id="paint38_linear_175_190" x1="228.5" y1="987" x2="228.5" y2="1298.38" gradientUnits="userSpaceOnUse">
<stop stop-color="#F7DD43"/>
<stop offset="1" stop-color="#F7DD43" stop-opacity="0"/>
</linearGradient>
<linearGradient id="paint39_linear_175_190" x1="228.5" y1="987" x2="228.5" y2="1298.38" gradientUnits="userSpaceOnUse">
<stop stop-color="#F7DD43"/>
<stop offset="1" stop-color="#F7DD43" stop-opacity="0"/>
</linearGradient>
<linearGradient id="paint40_linear_175_190" x1="228.5" y1="987" x2="228.5" y2="1298.38" gradientUnits="userSpaceOnUse">
<stop stop-color="#F7DD43"/>
<stop offset="1" stop-color="#F7DD43" stop-opacity="0"/>
</linearGradient>
<linearGradient id="paint41_linear_175_190" x1="228.5" y1="987" x2="228.5" y2="1298.38" gradientUnits="userSpaceOnUse">
<stop stop-color="#F7DD43"/>
<stop offset="1" stop-color="#F7DD43" stop-opacity="0"/>
</linearGradient>
<linearGradient id="paint42_linear_175_190" x1="228.5" y1="987" x2="228.5" y2="1298.38" gradientUnits="userSpaceOnUse">
<stop stop-color="#F7DD43"/>
<stop offset="1" stop-color="#F7DD43" stop-opacity="0"/>
</linearGradient>
<linearGradient id="paint43_linear_175_190" x1="228.5" y1="987" x2="228.5" y2="1298.38" gradientUnits="userSpaceOnUse">
<stop stop-color="#F7DD43"/>
<stop offset="1" stop-color="#F7DD43" stop-opacity="0"/>
</linearGradient>
<linearGradient id="paint44_linear_175_190" x1="228.5" y1="987" x2="228.5" y2="1298.38" gradientUnits="userSpaceOnUse">
<stop stop-color="#F7DD43"/>
<stop offset="1" stop-color="#F7DD43" stop-opacity="0"/>
</linearGradient>
<linearGradient id="paint45_linear_175_190" x1="228.5" y1="987" x2="228.5" y2="1298.38" gradientUnits="userSpaceOnUse">
<stop stop-color="#F7DD43"/>
<stop offset="1" stop-color="#F7DD43" stop-opacity="0"/>
</linearGradient>
<linearGradient id="paint46_linear_175_190" x1="228.5" y1="987" x2="228.5" y2="1298.38" gradientUnits="userSpaceOnUse">
<stop stop-color="#F7DD43"/>
<stop offset="1" stop-color="#F7DD43" stop-opacity="0"/>
</linearGradient>
<linearGradient id="paint47_linear_175_190" x1="1114.5" y1="687" x2="1114.5" y2="985.818" gradientUnits="userSpaceOnUse">
<stop stop-color="#F7DD43"/>
<stop offset="1" stop-color="#F7DD43" stop-opacity="0"/>
</linearGradient>
<linearGradient id="paint48_linear_175_190" x1="1114.5" y1="687" x2="1114.5" y2="985.818" gradientUnits="userSpaceOnUse">
<stop stop-color="#F7DD43"/>
<stop offset="1" stop-color="#F7DD43" stop-opacity="0"/>
</linearGradient>
<linearGradient id="paint49_linear_175_190" x1="1114.5" y1="687" x2="1114.5" y2="985.818" gradientUnits="userSpaceOnUse">
<stop stop-color="#F7DD43"/>
<stop offset="1" stop-color="#F7DD43" stop-opacity="0"/>
</linearGradient>
<linearGradient id="paint50_linear_175_190" x1="1114.5" y1="687" x2="1114.5" y2="985.818" gradientUnits="userSpaceOnUse">
<stop stop-color="#F7DD43"/>
<stop offset="1" stop-color="#F7DD43" stop-opacity="0"/>
</linearGradient>
<linearGradient id="paint51_linear_175_190" x1="1114.5" y1="687" x2="1114.5" y2="985.818" gradientUnits="userSpaceOnUse">
<stop stop-color="#F7DD43"/>
<stop offset="1" stop-color="#F7DD43" stop-opacity="0"/>
</linearGradient>
<linearGradient id="paint52_linear_175_190" x1="1114.5" y1="687" x2="1114.5" y2="985.818" gradientUnits="userSpaceOnUse">
<stop stop-color="#F7DD43"/>
<stop offset="1" stop-color="#F7DD43" stop-opacity="0"/>
</linearGradient>
<linearGradient id="paint53_linear_175_190" x1="1114.5" y1="687" x2="1114.5" y2="985.818" gradientUnits="userSpaceOnUse">
<stop stop-color="#F7DD43"/>
<stop offset="1" stop-color="#F7DD43" stop-opacity="0"/>
</linearGradient>
<linearGradient id="paint54_linear_175_190" x1="1114.5" y1="687" x2="1114.5" y2="985.818" gradientUnits="userSpaceOnUse">
<stop stop-color="#F7DD43"/>
<stop offset="1" stop-color="#F7DD43" stop-opacity="0"/>
</linearGradient>
<linearGradient id="paint55_linear_175_190" x1="1114.5" y1="687" x2="1114.5" y2="985.818" gradientUnits="userSpaceOnUse">
<stop stop-color="#F7DD43"/>
<stop offset="1" stop-color="#F7DD43" stop-opacity="0"/>
</linearGradient>
<linearGradient id="paint56_linear_175_190" x1="1114.5" y1="687" x2="1114.5" y2="985.818" gradientUnits="userSpaceOnUse">
<stop stop-color="#F7DD43"/>
<stop offset="1" stop-color="#F7DD43" stop-opacity="0"/>
</linearGradient>
<linearGradient id="paint57_linear_175_190" x1="1114.5" y1="687" x2="1114.5" y2="985.818" gradientUnits="userSpaceOnUse">
<stop stop-color="#F7DD43"/>
<stop offset="1" stop-color="#F7DD43" stop-opacity="0"/>
</linearGradient>
<linearGradient id="paint58_linear_175_190" x1="1114.5" y1="687" x2="1114.5" y2="985.818" gradientUnits="userSpaceOnUse">
<stop stop-color="#F7DD43"/>
<stop offset="1" stop-color="#F7DD43" stop-opacity="0"/>
</linearGradient>
<linearGradient id="paint59_linear_175_190" x1="1114.5" y1="687" x2="1114.5" y2="985.818" gradientUnits="userSpaceOnUse">
<stop stop-color="#F7DD43"/>
<stop offset="1" stop-color="#F7DD43" stop-opacity="0"/>
</linearGradient>
<linearGradient id="paint60_linear_175_190" x1="1114.5" y1="687" x2="1114.5" y2="985.818" gradientUnits="userSpaceOnUse">
<stop stop-color="#F7DD43"/>
<stop offset="1" stop-color="#F7DD43" stop-opacity="0"/>
</linearGradient>
<linearGradient id="paint61_linear_175_190" x1="1114.5" y1="687" x2="1114.5" y2="985.818" gradientUnits="userSpaceOnUse">
<stop stop-color="#F7DD43"/>
<stop offset="1" stop-color="#F7DD43" stop-opacity="0"/>
</linearGradient>
<linearGradient id="paint62_linear_175_190" x1="1114.5" y1="687" x2="1114.5" y2="985.818" gradientUnits="userSpaceOnUse">
<stop stop-color="#F7DD43"/>
<stop offset="1" stop-color="#F7DD43" stop-opacity="0"/>
</linearGradient>
<linearGradient id="paint63_linear_175_190" x1="1114.5" y1="687" x2="1114.5" y2="985.818" gradientUnits="userSpaceOnUse">
<stop stop-color="#F7DD43"/>
<stop offset="1" stop-color="#F7DD43" stop-opacity="0"/>
</linearGradient>
<linearGradient id="paint64_linear_175_190" x1="1114.5" y1="687" x2="1114.5" y2="985.818" gradientUnits="userSpaceOnUse">
<stop stop-color="#F7DD43"/>
<stop offset="1" stop-color="#F7DD43" stop-opacity="0"/>
</linearGradient>
<linearGradient id="paint65_linear_175_190" x1="1114.5" y1="687" x2="1114.5" y2="985.818" gradientUnits="userSpaceOnUse">
<stop stop-color="#F7DD43"/>
<stop offset="1" stop-color="#F7DD43" stop-opacity="0"/>
</linearGradient>
<linearGradient id="paint66_linear_175_190" x1="1114.5" y1="687" x2="1114.5" y2="985.818" gradientUnits="userSpaceOnUse">
<stop stop-color="#F7DD43"/>
<stop offset="1" stop-color="#F7DD43" stop-opacity="0"/>
</linearGradient>
<linearGradient id="paint67_linear_175_190" x1="1114.5" y1="687" x2="1114.5" y2="985.818" gradientUnits="userSpaceOnUse">
<stop stop-color="#F7DD43"/>
<stop offset="1" stop-color="#F7DD43" stop-opacity="0"/>
</linearGradient>
<linearGradient id="paint68_linear_175_190" x1="1114.5" y1="687" x2="1114.5" y2="985.818" gradientUnits="userSpaceOnUse">
<stop stop-color="#F7DD43"/>
<stop offset="1" stop-color="#F7DD43" stop-opacity="0"/>
</linearGradient>
<linearGradient id="paint69_linear_175_190" x1="1114.5" y1="687" x2="1114.5" y2="985.818" gradientUnits="userSpaceOnUse">
<stop stop-color="#F7DD43"/>
<stop offset="1" stop-color="#F7DD43" stop-opacity="0"/>
</linearGradient>
<linearGradient id="paint70_linear_175_190" x1="1114.5" y1="687" x2="1114.5" y2="985.818" gradientUnits="userSpaceOnUse">
<stop stop-color="#F7DD43"/>
<stop offset="1" stop-color="#F7DD43" stop-opacity="0"/>
</linearGradient>
<linearGradient id="paint71_linear_175_190" x1="1114.5" y1="687" x2="1114.5" y2="985.818" gradientUnits="userSpaceOnUse">
<stop stop-color="#F7DD43"/>
<stop offset="1" stop-color="#F7DD43" stop-opacity="0"/>
</linearGradient>
<linearGradient id="paint72_linear_175_190" x1="1114.5" y1="687" x2="1114.5" y2="985.818" gradientUnits="userSpaceOnUse">
<stop stop-color="#F7DD43"/>
<stop offset="1" stop-color="#F7DD43" stop-opacity="0"/>
</linearGradient>
<linearGradient id="paint73_linear_175_190" x1="1114.5" y1="687" x2="1114.5" y2="985.818" gradientUnits="userSpaceOnUse">
<stop stop-color="#F7DD43"/>
<stop offset="1" stop-color="#F7DD43" stop-opacity="0"/>
</linearGradient>
<linearGradient id="paint74_linear_175_190" x1="1114.5" y1="687" x2="1114.5" y2="985.818" gradientUnits="userSpaceOnUse">
<stop stop-color="#F7DD43"/>
<stop offset="1" stop-color="#F7DD43" stop-opacity="0"/>
</linearGradient>
<linearGradient id="paint75_linear_175_190" x1="1114.5" y1="687" x2="1114.5" y2="985.818" gradientUnits="userSpaceOnUse">
<stop stop-color="#F7DD43"/>
<stop offset="1" stop-color="#F7DD43" stop-opacity="0"/>
</linearGradient>
<linearGradient id="paint76_linear_175_190" x1="1114.5" y1="687" x2="1114.5" y2="985.818" gradientUnits="userSpaceOnUse">
<stop stop-color="#F7DD43"/>
<stop offset="1" stop-color="#F7DD43" stop-opacity="0"/>
</linearGradient>
<linearGradient id="paint77_linear_175_190" x1="1114.5" y1="687" x2="1114.5" y2="985.818" gradientUnits="userSpaceOnUse">
<stop stop-color="#F7DD43"/>
<stop offset="1" stop-color="#F7DD43" stop-opacity="0"/>
</linearGradient>
<linearGradient id="paint78_linear_175_190" x1="1114.5" y1="687" x2="1114.5" y2="985.818" gradientUnits="userSpaceOnUse">
<stop stop-color="#F7DD43"/>
<stop offset="1" stop-color="#F7DD43" stop-opacity="0"/>
</linearGradient>
<linearGradient id="paint79_linear_175_190" x1="1114.5" y1="687" x2="1114.5" y2="985.818" gradientUnits="userSpaceOnUse">
<stop stop-color="#F7DD43"/>
<stop offset="1" stop-color="#F7DD43" stop-opacity="0"/>
</linearGradient>
<linearGradient id="paint80_linear_175_190" x1="1114.5" y1="687" x2="1114.5" y2="985.818" gradientUnits="userSpaceOnUse">
<stop stop-color="#F7DD43"/>
<stop offset="1" stop-color="#F7DD43" stop-opacity="0"/>
</linearGradient>
<linearGradient id="paint81_linear_175_190" x1="1114.5" y1="687" x2="1114.5" y2="985.818" gradientUnits="userSpaceOnUse">
<stop stop-color="#F7DD43"/>
<stop offset="1" stop-color="#F7DD43" stop-opacity="0"/>
</linearGradient>
<linearGradient id="paint82_linear_175_190" x1="1114.5" y1="687" x2="1114.5" y2="985.818" gradientUnits="userSpaceOnUse">
<stop stop-color="#F7DD43"/>
<stop offset="1" stop-color="#F7DD43" stop-opacity="0"/>
</linearGradient>
<linearGradient id="paint83_linear_175_190" x1="1114.5" y1="687" x2="1114.5" y2="985.818" gradientUnits="userSpaceOnUse">
<stop stop-color="#F7DD43"/>
<stop offset="1" stop-color="#F7DD43" stop-opacity="0"/>
</linearGradient>
<linearGradient id="paint84_linear_175_190" x1="1114.5" y1="687" x2="1114.5" y2="985.818" gradientUnits="userSpaceOnUse">
<stop stop-color="#F7DD43"/>
<stop offset="1" stop-color="#F7DD43" stop-opacity="0"/>
</linearGradient>
<linearGradient id="paint85_linear_175_190" x1="1114.5" y1="687" x2="1114.5" y2="985.818" gradientUnits="userSpaceOnUse">
<stop stop-color="#F7DD43"/>
<stop offset="1" stop-color="#F7DD43" stop-opacity="0"/>
</linearGradient>
<linearGradient id="paint86_linear_175_190" x1="1114.5" y1="687" x2="1114.5" y2="985.818" gradientUnits="userSpaceOnUse">
<stop stop-color="#F7DD43"/>
<stop offset="1" stop-color="#F7DD43" stop-opacity="0"/>
</linearGradient>
<linearGradient id="paint87_linear_175_190" x1="1114.5" y1="687" x2="1114.5" y2="985.818" gradientUnits="userSpaceOnUse">
<stop stop-color="#F7DD43"/>
<stop offset="1" stop-color="#F7DD43" stop-opacity="0"/>
</linearGradient>
<linearGradient id="paint88_linear_175_190" x1="1114.5" y1="687" x2="1114.5" y2="985.818" gradientUnits="userSpaceOnUse">
<stop stop-color="#F7DD43"/>
<stop offset="1" stop-color="#F7DD43" stop-opacity="0"/>
</linearGradient>
<linearGradient id="paint89_linear_175_190" x1="1114.5" y1="687" x2="1114.5" y2="985.818" gradientUnits="userSpaceOnUse">
<stop stop-color="#F7DD43"/>
<stop offset="1" stop-color="#F7DD43" stop-opacity="0"/>
</linearGradient>
<linearGradient id="paint90_linear_175_190" x1="1114.5" y1="687" x2="1114.5" y2="985.818" gradientUnits="userSpaceOnUse">
<stop stop-color="#F7DD43"/>
<stop offset="1" stop-color="#F7DD43" stop-opacity="0"/>
</linearGradient>
<linearGradient id="paint91_linear_175_190" x1="1114.5" y1="687" x2="1114.5" y2="985.818" gradientUnits="userSpaceOnUse">
<stop stop-color="#F7DD43"/>
<stop offset="1" stop-color="#F7DD43" stop-opacity="0"/>
</linearGradient>
<linearGradient id="paint92_linear_175_190" x1="1114.5" y1="687" x2="1114.5" y2="985.818" gradientUnits="userSpaceOnUse">
<stop stop-color="#F7DD43"/>
<stop offset="1" stop-color="#F7DD43" stop-opacity="0"/>
</linearGradient>
<linearGradient id="paint93_linear_175_190" x1="1114.5" y1="687" x2="1114.5" y2="985.818" gradientUnits="userSpaceOnUse">
<stop stop-color="#F7DD43"/>
<stop offset="1" stop-color="#F7DD43" stop-opacity="0"/>
</linearGradient>
</defs>
</svg>
